<?xml version="1.0" encoding="UTF-8" ?>
<!DOCTYPE svg PUBLIC "-//W3C//DTD SVG 1.1//EN" "http://www.w3.org/Graphics/SVG/1.1/DTD/svg11.dtd">
<svg width="512pt" height="512pt" viewBox="0 0 512 512" version="1.1" xmlns="http://www.w3.org/2000/svg">
<g id="#ffffffff">
<path fill="#ffffff" opacity="1.00" d=" M 250.47 0.00 L 263.50 0.00 C 272.75 0.52 282.00 1.12 291.17 2.44 C 287.86 9.47 283.50 15.95 279.77 22.77 C 241.23 89.82 202.43 156.72 163.75 223.70 C 161.83 227.05 159.83 230.36 158.20 233.86 C 155.60 233.21 155.07 230.14 153.70 228.20 C 128.16 183.53 102.20 139.11 76.52 94.53 C 74.02 90.10 71.26 85.80 69.03 81.20 C 84.23 65.09 101.40 50.82 120.22 39.13 C 159.06 14.66 204.60 1.11 250.47 0.00 Z" />
<path fill="#ffffff" opacity="1.00" d=" M 227.72 155.63 C 256.57 106.02 284.85 56.08 313.94 6.61 C 371.98 20.19 425.00 54.51 460.64 102.35 C 473.71 120.00 484.99 139.16 492.89 159.68 C 403.92 159.81 314.95 159.72 225.98 159.72 C 226.35 158.27 226.93 156.90 227.72 155.63 Z" />
<path fill="#ffffff" opacity="1.00" d=" M 47.56 107.60 C 49.79 104.66 51.57 101.28 54.51 98.95 C 87.62 156.63 121.13 214.08 154.26 271.76 C 165.43 291.44 177.05 310.87 188.05 330.65 C 129.10 330.71 70.15 330.64 11.19 330.68 C 4.42 308.93 0.92 286.25 0.00 263.50 L 0.00 250.47 C 1.21 199.53 17.87 149.04 47.56 107.60 Z" />
<path fill="#ffffff" opacity="1.00" d=" M 323.95 181.36 C 382.91 181.29 441.86 181.35 500.81 181.33 C 507.58 203.08 511.03 225.76 512.00 248.50 L 512.00 259.54 C 511.22 314.05 492.49 368.10 459.31 411.36 C 458.74 411.95 458.15 412.51 457.54 413.05 C 413.05 335.79 368.16 258.77 323.95 181.36 Z" />
<path fill="#ffffff" opacity="1.00" d=" M 353.70 278.44 C 354.11 278.43 354.93 278.41 355.34 278.40 C 368.19 301.49 381.66 324.23 394.82 347.15 C 410.82 375.07 427.31 402.72 442.97 430.81 C 425.63 449.18 405.70 465.16 383.75 477.70 C 346.46 499.35 303.61 511.13 260.53 512.00 L 249.50 512.00 C 239.91 511.54 230.33 510.89 220.82 509.56 C 221.31 508.47 221.81 507.39 222.36 506.35 C 254.68 450.34 286.88 394.26 319.35 338.33 C 330.76 318.35 342.61 298.60 353.70 278.44 Z" />
<path fill="#ffffff" opacity="1.00" d=" M 19.11 352.32 C 108.09 352.20 197.06 352.25 286.04 352.30 C 285.30 355.17 283.50 357.58 282.06 360.13 C 254.07 408.55 226.38 457.16 198.06 505.38 C 155.26 495.22 115.08 474.10 82.72 444.28 C 61.08 424.42 42.95 400.73 29.33 374.72 C 25.64 367.39 21.77 360.09 19.11 352.32 Z" />
</g>
</svg>
